<svg xmlns="http://www.w3.org/2000/svg" viewBox="0 0 197.58 12.97" width="197.58" height="12.97"><defs><style>.cls-1{fill:#231815;}</style></defs><title>footer_copy</title><g id="レイヤー_2" data-name="レイヤー 2"><g id="FOOTER"><path class="cls-1" d="M10.86,5.43A5.23,5.23,0,0,1,9.27,9.27a5.23,5.23,0,0,1-3.84,1.59A5.23,5.23,0,0,1,1.59,9.27,5.23,5.23,0,0,1,0,5.43,5.23,5.23,0,0,1,1.59,1.59,5.23,5.23,0,0,1,5.43,0,5.23,5.23,0,0,1,9.27,1.59,5.23,5.23,0,0,1,10.86,5.43Zm-1.3,0a4.13,4.13,0,0,0-1.19-3A4,4,0,0,0,5.43,1.21,4,4,0,0,0,2.48,2.42a4.11,4.11,0,0,0-1.19,3,4.11,4.11,0,0,0,1.19,3A4,4,0,0,0,5.43,9.64,4,4,0,0,0,8.37,8.44,4.12,4.12,0,0,0,9.56,5.43Zm-2,2.16a2.89,2.89,0,0,1-2,.78,2.54,2.54,0,0,1-1.91-.75,3,3,0,0,1-.78-2.19,3,3,0,0,1,.78-2.21,2.55,2.55,0,0,1,1.91-.75,3,3,0,0,1,2,.79l-.84.84a1.78,1.78,0,0,0-1.14-.48q-1.41,0-1.41,1.8t1.41,1.8a1.78,1.78,0,0,0,1.14-.48Z"/><path class="cls-1" d="M19.42,10.21H17.17l-1.79-3L14.62,8v2.17H12.78V.25h1.83V5.9l2.41-3h2.19l-2.6,2.94Z"/><path class="cls-1" d="M22.43,1.69H20.59V.2h1.83Zm0,8.53H20.59V2.92h1.83Z"/><path class="cls-1" d="M31.6,7.15a3.76,3.76,0,0,1-6.36,2.06,3.19,3.19,0,0,1-.87-1.72,14.87,14.87,0,0,1-.11-2.25A14.91,14.91,0,0,1,24.37,3a3.19,3.19,0,0,1,.87-1.72A3.65,3.65,0,0,1,27.93.16,3.7,3.7,0,0,1,30.36,1,3.68,3.68,0,0,1,31.6,3.31h-2A1.62,1.62,0,0,0,27.94,1.9a1.58,1.58,0,0,0-1.36.66,5.68,5.68,0,0,0-.38,2.67q0,1.16,0,1.46A2.46,2.46,0,0,0,26.7,8a1.58,1.58,0,0,0,1.25.52,1.62,1.62,0,0,0,1.68-1.41Z"/><path class="cls-1" d="M39.77,10.21H37.53l-1.79-3L35,8v2.17H33.14V.25H35V5.9l2.41-3h2.19L37,5.86Z"/><path class="cls-1" d="M46,1.69H44.2V.2H46Zm0,8.53H44.2V2.92H46Z"/><path class="cls-1" d="M54.12,10.21H52.29V5.8a1.32,1.32,0,0,0-.39-1,1.15,1.15,0,0,0-.81-.29,1.17,1.17,0,0,0-.82.29,1.32,1.32,0,0,0-.39,1v4.41H48.06V2.92h1.78v.67a2.4,2.4,0,0,1,1.82-.76,2.33,2.33,0,0,1,1.72.64,2.8,2.8,0,0,1,.74,2.07Z"/><path class="cls-1" d="M61.39,9.3a3.19,3.19,0,0,1-2.41,1,3.12,3.12,0,0,1-2.17-.76,3.8,3.8,0,0,1-1.09-3,3.76,3.76,0,0,1,1.09-3A3.12,3.12,0,0,1,59,2.84a3.19,3.19,0,0,1,2.41,1L60.16,5A1.57,1.57,0,0,0,59,4.47,1.28,1.28,0,0,0,58,5a2.54,2.54,0,0,0-.4,1.6A2.57,2.57,0,0,0,58,8.17a1.28,1.28,0,0,0,1,.49,1.57,1.57,0,0,0,1.17-.57Z"/><path class="cls-1" d="M64.82,10.21H62.73V8.14h2.09Z"/><path class="cls-1" d="M77.88,10.21h-2l-.59-1.76H71.72l-.6,1.76h-2l3.63-10h1.53Zm-3.14-3.4L73.53,3.19,72.27,6.81Z"/><path class="cls-1" d="M82.07,10.21H81a2,2,0,0,1-1.62-.66,2.08,2.08,0,0,1-.5-1.43V.25h1.83V8a.57.57,0,0,0,.64.66h.69Z"/><path class="cls-1" d="M86.62,10.21h-1A2,2,0,0,1,84,9.55a2.08,2.08,0,0,1-.5-1.43V.25h1.83V8a.57.57,0,0,0,.64.66h.69Z"/><path class="cls-1" d="M99,10.21H96.75l-1.95-4h-1.4v4H91.46V.25h3.91a3.22,3.22,0,0,1,2.38.89A2.93,2.93,0,0,1,98.6,3.3,2.73,2.73,0,0,1,98.05,5a2.75,2.75,0,0,1-1.27.91ZM96.65,3.29a1.23,1.23,0,0,0-.39-.95,1.44,1.44,0,0,0-1-.36H93.41V4.6h1.83a1.45,1.45,0,0,0,1-.36A1.23,1.23,0,0,0,96.65,3.29Z"/><path class="cls-1" d="M102.3,1.69h-1.83V.2h1.83Zm0,8.53h-1.83V2.92h1.83Z"/><path class="cls-1" d="M110.07,9.95a2.9,2.9,0,0,1-.87,2.18,3.21,3.21,0,0,1-2.33.85,3.66,3.66,0,0,1-2.65-1l1.13-1.15a2,2,0,0,0,1.43.56,1.4,1.4,0,0,0,1.15-.48,1.62,1.62,0,0,0,.32-1V9.18a2.23,2.23,0,0,1-1.74.73A2.23,2.23,0,0,1,104.14,8,9,9,0,0,1,104,6.36a9,9,0,0,1,.11-1.67,2.36,2.36,0,0,1,.63-1.22,2.37,2.37,0,0,1,1.75-.64,2.27,2.27,0,0,1,1.78.77V2.92h1.76Zm-1.82-3.58a3.29,3.29,0,0,0-.18-1.26,1,1,0,0,0-1-.63,1,1,0,0,0-1,.59,3.21,3.21,0,0,0-.19,1.3,3.32,3.32,0,0,0,.19,1.32,1,1,0,0,0,1,.59,1,1,0,0,0,1-.63A3.39,3.39,0,0,0,108.25,6.36Z"/><path class="cls-1" d="M118.1,10.21h-1.83V5.76a1.28,1.28,0,0,0-.37-1,1.17,1.17,0,0,0-.8-.28,1.12,1.12,0,0,0-.79.28,1.31,1.31,0,0,0-.37,1v4.45H112.1V.25h1.83V3.59a2.36,2.36,0,0,1,1.74-.76,2.28,2.28,0,0,1,1.81.76,2.82,2.82,0,0,1,.61,1.9Z"/><path class="cls-1" d="M123.35,10.21h-1a2,2,0,0,1-1.61-.66,2.08,2.08,0,0,1-.5-1.43V4.52h-.77V3.13h.77V1h1.83V3.13h1.27V4.52h-1.27V8q0,.66.62.66h.65Z"/><path class="cls-1" d="M130.49,7.92a2.06,2.06,0,0,1-.9,1.79,3.75,3.75,0,0,1-2.2.59,6.29,6.29,0,0,1-1.67-.18,3.35,3.35,0,0,1-1.44-.87l1.19-1.19a2.63,2.63,0,0,0,1.95.69q1.29,0,1.29-.76,0-.6-.77-.67L126.8,7.2q-2.13-.21-2.13-2a2.06,2.06,0,0,1,.85-1.74,3.17,3.17,0,0,1,2-.59,4,4,0,0,1,2.79.85l-1.12,1.13a2.48,2.48,0,0,0-1.69-.49q-1,0-1,.7t.76.63l1.15.11Q130.49,6,130.49,7.92Z"/><path class="cls-1" d="M142.94,10.21h-2.25l-1.95-4h-1.4v4h-1.95V.25h3.91a3.22,3.22,0,0,1,2.38.89,2.93,2.93,0,0,1,.85,2.16A2.73,2.73,0,0,1,142,5a2.75,2.75,0,0,1-1.27.91Zm-2.35-6.92a1.23,1.23,0,0,0-.39-.95,1.44,1.44,0,0,0-1-.36h-1.83V4.6h1.83a1.45,1.45,0,0,0,1-.36A1.23,1.23,0,0,0,140.59,3.29Z"/><path class="cls-1" d="M150.4,7.13h-4.56a1.63,1.63,0,0,0,.43,1.18,1.54,1.54,0,0,0,1.17.45,2.25,2.25,0,0,0,1.65-.69l1.11,1.08A4,4,0,0,1,149,10a3.91,3.91,0,0,1-1.6.29Q144,10.3,144,6.56a4,4,0,0,1,.88-2.76,2.91,2.91,0,0,1,2.3-1,3,3,0,0,1,2.35,1,3.67,3.67,0,0,1,.83,2.49Zm-1.79-1.25a2,2,0,0,0-.17-.78,1.36,1.36,0,0,0-2.44,0,2,2,0,0,0-.17.78Z"/><path class="cls-1" d="M157.58,7.92a2.06,2.06,0,0,1-.9,1.79,3.75,3.75,0,0,1-2.2.59,6.29,6.29,0,0,1-1.67-.18,3.35,3.35,0,0,1-1.44-.87l1.19-1.19a2.63,2.63,0,0,0,1.95.69q1.29,0,1.29-.76,0-.6-.77-.67l-1.15-.11q-2.13-.21-2.13-2a2.06,2.06,0,0,1,.85-1.74,3.17,3.17,0,0,1,2-.59,4,4,0,0,1,2.79.85l-1.12,1.13a2.48,2.48,0,0,0-1.69-.49q-1,0-1,.7t.76.63l1.15.11Q157.58,6,157.58,7.92Z"/><path class="cls-1" d="M165.08,7.13h-4.56a1.63,1.63,0,0,0,.43,1.18,1.54,1.54,0,0,0,1.17.45,2.25,2.25,0,0,0,1.65-.69l1.11,1.08a4,4,0,0,1-1.18.86,3.91,3.91,0,0,1-1.6.29q-3.37,0-3.37-3.74a4,4,0,0,1,.88-2.76,2.91,2.91,0,0,1,2.3-1,3,3,0,0,1,2.35,1,3.67,3.67,0,0,1,.83,2.49Zm-1.79-1.25a2,2,0,0,0-.17-.78,1.36,1.36,0,0,0-2.44,0,2,2,0,0,0-.17.78Z"/><path class="cls-1" d="M172.1,3.52l-1.37,1.39a1.34,1.34,0,0,0-1-.44,1.11,1.11,0,0,0-.8.32,1.38,1.38,0,0,0-.38,1v4.4h-1.82V2.92h1.78v.7a2.27,2.27,0,0,1,1.83-.78A2.34,2.34,0,0,1,172.1,3.52Z"/><path class="cls-1" d="M179,2.92l-2.67,7.29h-1.43l-2.69-7.29h1.92l1.48,4.51L177,2.92Z"/><path class="cls-1" d="M186,7.13h-4.56a1.63,1.63,0,0,0,.43,1.18,1.54,1.54,0,0,0,1.17.45,2.25,2.25,0,0,0,1.65-.69l1.11,1.08a4,4,0,0,1-1.18.86,3.91,3.91,0,0,1-1.6.29q-3.37,0-3.37-3.74a4,4,0,0,1,.88-2.76,2.91,2.91,0,0,1,2.3-1,3,3,0,0,1,2.35,1A3.67,3.67,0,0,1,186,6.32Zm-1.79-1.25a2,2,0,0,0-.17-.78,1.36,1.36,0,0,0-2.44,0,2,2,0,0,0-.17.78Z"/><path class="cls-1" d="M193.53,10.21h-1.78V9.53a2.3,2.3,0,0,1-1.81.77,2.42,2.42,0,0,1-1.79-.66,2.51,2.51,0,0,1-.64-1.4,10.59,10.59,0,0,1-.1-1.68,10.54,10.54,0,0,1,.1-1.67,2.51,2.51,0,0,1,.64-1.4,2.39,2.39,0,0,1,1.77-.66,2.27,2.27,0,0,1,1.77.73V.25h1.83ZM191.7,6.56a3.8,3.8,0,0,0-.21-1.48,1,1,0,0,0-1-.6,1,1,0,0,0-1.07.7,4.46,4.46,0,0,0-.15,1.38,4.47,4.47,0,0,0,.15,1.39,1,1,0,0,0,1.07.71,1,1,0,0,0,1-.6A3.92,3.92,0,0,0,191.7,6.56Z"/><path class="cls-1" d="M197.58,10.21h-2.09V8.14h2.09Z"/></g></g></svg>