<svg xmlns="http://www.w3.org/2000/svg" viewBox="0 0 375.86 47.78" width="375.86" height="47.78"><defs><style>.cls-1{fill:#231815;}</style></defs><title>ttl_statement2</title><g id="レイヤー_2" data-name="レイヤー 2"><g id="レイヤー_1-2" data-name="レイヤー 1"><path class="cls-1" d="M17.16,47.78C10,47.78,4.62,46.26,0,41.58l5.94-5.94c3,3,7,4,11.35,4,5.41,0,8.31-2,8.31-5.81a5.23,5.23,0,0,0-1.45-4c-.92-.86-2-1.32-4.16-1.65l-5.68-.79c-4-.59-7-1.85-9.11-3.89C3,21.25,1.85,18.21,1.85,14.25,1.85,5.87,8.05,0,18.21,0c6.47,0,11.15,1.58,15.18,5.48l-5.81,5.74C24.62,8.38,21.05,8,18,8c-4.88,0-7.26,2.71-7.26,5.94a4.53,4.53,0,0,0,1.39,3.37,8.08,8.08,0,0,0,4.36,1.85l5.54.79c4.29.59,7,1.78,9,3.63,2.51,2.38,3.63,5.81,3.63,10C34.58,42.63,27,47.78,17.16,47.78Z"/><path class="cls-1" d="M60.19,8.58v38.8H51V8.58H38.74V.4H72.46V8.58Z"/><path class="cls-1" d="M104,47.38l-2.77-8.32H84.54l-2.84,8.32H72.14L89.23.4h7.19l17.16,47Zm-11-33.13L87.12,31.35H98.8Z"/><path class="cls-1" d="M133.71,8.58v38.8h-9.17V8.58H112.26V.4H146V8.58Z"/><path class="cls-1" d="M155.76,47.38V.4h31V8.58H164.93v11h18.54v8.18H164.93V39.2h21.78v8.18Z"/><path class="cls-1" d="M231.06,47.38V20l-9,17.82h-6.2l-9-17.82V47.38h-9.17V.4h9L219,25.8,231.19.4h9v47Z"/><path class="cls-1" d="M253.17,47.38V.4h31V8.58H262.35v11h18.54v8.18H262.35V39.2h21.78v8.18Z"/><path class="cls-1" d="M323.86,47.38,305.25,18.54V47.38h-9.17V.4h8.18l18.61,28.77V.4H332v47Z"/><path class="cls-1" d="M363.59,8.58v38.8h-9.17V8.58H342.14V.4h33.72V8.58Z"/></g></g></svg>