<svg xmlns="http://www.w3.org/2000/svg" viewBox="0 0 267.63 47.78" width="267.63" height="47.78"><defs><style>.cls-1{fill:#231815;}</style></defs><title>ttl_profile2</title><g id="レイヤー_2" data-name="レイヤー 2"><g id="レイヤー_1-2" data-name="レイヤー 1"><path class="cls-1" d="M18.21,29.7h-9V47.38H0V.4H18.21C27.92.4,33.72,7.06,33.72,15S27.92,29.7,18.21,29.7ZM17.75,8.58H9.17V21.45h8.58c4.16,0,6.8-2.57,6.8-6.4S21.91,8.58,17.75,8.58Z"/><path class="cls-1" d="M67.71,47.38,58.54,28.64h-6.6V47.38H42.77V.4H61.18c9.57,0,15.25,6.53,15.25,14.39a12.65,12.65,0,0,1-8.58,12.34L78.34,47.38ZM60.59,8.58H51.94V21h8.65c4,0,6.67-2.57,6.67-6.2S64.61,8.58,60.59,8.58Z"/><path class="cls-1" d="M116,42.63a18.25,18.25,0,0,1-25.41,0C85.86,37.88,86,32,86,23.89s-.13-14,4.62-18.74a18.25,18.25,0,0,1,25.41,0c4.75,4.75,4.69,10.63,4.69,18.74S120.78,37.88,116,42.63Zm-6.8-31.94a7.63,7.63,0,0,0-5.87-2.51,7.77,7.77,0,0,0-5.94,2.51c-1.78,2-2.24,4.16-2.24,13.2s.46,11.22,2.24,13.2a7.77,7.77,0,0,0,5.94,2.51,7.63,7.63,0,0,0,5.87-2.51c1.78-2,2.31-4.16,2.31-13.2S111,12.67,109.23,10.69Z"/><path class="cls-1" d="M140.91,8.58V20.13h18.54v8.18H140.91V47.38h-9.17V.4h31V8.58Z"/><path class="cls-1" d="M173.64,47.38V.4h9.17v47Z"/><path class="cls-1" d="M196.08,47.38V.4h9.17V39.2h21.32v8.18Z"/><path class="cls-1" d="M236.67,47.38V.4h31V8.58H245.85v11h18.54v8.18H245.85V39.2h21.78v8.18Z"/></g></g></svg>