<svg xmlns="http://www.w3.org/2000/svg" viewBox="0 0 253.76 47.78" width="253.76" height="47.78"><defs><style>.cls-1{fill:#231815;}</style></defs><title>ttl_career2</title><g id="レイヤー_2" data-name="レイヤー 2"><g id="レイヤー_1-2" data-name="レイヤー 1"><path class="cls-1" d="M17.29,47.78A17.22,17.22,0,0,1,4.62,42.63,13.59,13.59,0,0,1,.79,35.57,64.08,64.08,0,0,1,0,23.89,64.07,64.07,0,0,1,.79,12.21,13.34,13.34,0,0,1,4.62,5.15,17.22,17.22,0,0,1,17.29,0c9,0,15.71,5.28,17.29,14.85H25.28c-1-4-3.5-6.67-7.92-6.67a7.26,7.26,0,0,0-5.87,2.44c-1.91,2-2.31,4.16-2.31,13.26s.4,11.22,2.31,13.27a7.26,7.26,0,0,0,5.87,2.44c4.42,0,6.93-2.64,7.92-6.67h9.31C33,42.5,26.27,47.78,17.29,47.78Z"/><path class="cls-1" d="M71.21,47.38l-2.77-8.32H51.74l-2.84,8.32H39.34L56.43.4h7.19l17.16,47Zm-11-33.13L54.32,31.35H66Z"/><path class="cls-1" d="M112.86,47.38l-9.17-18.74h-6.6V47.38H87.91V.4h18.41c9.57,0,15.24,6.53,15.24,14.39A12.65,12.65,0,0,1,113,27.12l10.49,20.26Zm-7.13-38.8H97.08V21h8.64c4,0,6.67-2.57,6.67-6.2S109.75,8.58,105.73,8.58Z"/><path class="cls-1" d="M133.05,47.38V.4h31V8.58H142.23v11h18.54v8.18H142.23V39.2H164v8.18Z"/><path class="cls-1" d="M175.62,47.38V.4h31V8.58H184.8v11h18.54v8.18H184.8V39.2h21.78v8.18Z"/><path class="cls-1" d="M243.14,47.38,234,28.64h-6.6V47.38h-9.17V.4h18.41c9.57,0,15.24,6.53,15.24,14.39a12.65,12.65,0,0,1-8.58,12.34l10.49,20.26ZM236,8.58h-8.64V21H236c4,0,6.67-2.57,6.67-6.2S240,8.58,236,8.58Z"/></g></g></svg>