<svg xmlns="http://www.w3.org/2000/svg" viewBox="0 0 482.9 65.53" width="482.9" height="65.53"><defs><style>.cls-1{fill:#231815;}</style></defs><title>ttl_tcs2</title><g id="レイヤー_2" data-name="レイヤー 2"><g id="レイヤー_1-2" data-name="レイヤー 1"><path class="cls-1" d="M12.35,4.94V27.28H7.07V4.94H0V.23H19.42V4.94Z"/><path class="cls-1" d="M39.9,24.54a9.79,9.79,0,0,1-7.29,3,9.87,9.87,0,0,1-7.33-3c-2.73-2.74-2.66-6.12-2.66-10.79S22.54,5.7,25.27,3A9.87,9.87,0,0,1,32.6,0,9.79,9.79,0,0,1,39.9,3c2.73,2.74,2.7,6.12,2.7,10.79S42.63,21.81,39.9,24.54ZM36,6.15A4.39,4.39,0,0,0,32.6,4.71a4.48,4.48,0,0,0-3.42,1.44c-1,1.14-1.29,2.39-1.29,7.6s.27,6.46,1.29,7.6A4.47,4.47,0,0,0,32.6,22.8,4.39,4.39,0,0,0,36,21.35c1-1.14,1.33-2.39,1.33-7.6S37,7.29,36,6.15Z"/><path class="cls-1" d="M58.14,4.94V27.28H52.86V4.94H45.79V.23H65.21V4.94Z"/><path class="cls-1" d="M84.13,27.28l-1.6-4.79H72.92l-1.63,4.79H65.78L75.62.23h4.14l9.88,27.05ZM77.82,8.21,74.4,18h6.72Z"/><path class="cls-1" d="M93.55,27.28V.23h5.28V22.57h12.27v4.71Z"/><path class="cls-1" d="M134.78,27.51a9.92,9.92,0,0,1-7.29-3,7.83,7.83,0,0,1-2.2-4.07,36.82,36.82,0,0,1-.46-6.72A36.81,36.81,0,0,1,125.29,7,7.69,7.69,0,0,1,127.49,3a9.92,9.92,0,0,1,7.29-3c5.21,0,9,3,10,8.55h-5.36c-.57-2.32-2-3.84-4.56-3.84a4.18,4.18,0,0,0-3.38,1.41c-1.1,1.18-1.33,2.39-1.33,7.64s.23,6.46,1.33,7.64a4.18,4.18,0,0,0,3.38,1.41c2.54,0,4-1.52,4.56-3.84h5.36C143.83,24.47,140,27.51,134.78,27.51Z"/><path class="cls-1" d="M164,27.28l-5.28-10.79H155V27.28h-5.28V.23h10.6c5.51,0,8.78,3.76,8.78,8.28a7.28,7.28,0,0,1-4.94,7.1l6,11.66Zm-4.1-22.34h-5v7.14h5a3.53,3.53,0,0,0,3.84-3.57A3.53,3.53,0,0,0,159.94,4.94Z"/><path class="cls-1" d="M174.15,27.28V.23H192V4.94H179.43v6.34h10.68V16H179.43v6.57H192v4.71Z"/><path class="cls-1" d="M213.1,27.28l-1.6-4.79h-9.61l-1.63,4.79h-5.51L204.59.23h4.14l9.88,27.05ZM206.79,8.21,203.37,18h6.72Z"/><path class="cls-1" d="M230.2,4.94V27.28h-5.28V4.94h-7.07V.23h19.41V4.94Z"/><path class="cls-1" d="M242.51,27.28V.23h5.28V27.28Z"/><path class="cls-1" d="M264.7,27.28h-4L251.82.23h5.47l5.43,17.63L268.16.23h5.51Z"/><path class="cls-1" d="M277.51,27.28V.23h17.82V4.94H282.79v6.34h10.68V16H282.79v6.57h12.54v4.71Z"/><path class="cls-1" d="M318.29,27.51c-4.1,0-7.22-.87-9.88-3.57l3.42-3.42a8.85,8.85,0,0,0,6.54,2.28c3.12,0,4.79-1.18,4.79-3.34a3,3,0,0,0-.84-2.28,4,4,0,0,0-2.39-1l-3.27-.46a9.17,9.17,0,0,1-5.24-2.24,7.14,7.14,0,0,1-1.94-5.32C309.47,3.38,313,0,318.89,0c3.72,0,6.42.91,8.74,3.15l-3.34,3.31a7.53,7.53,0,0,0-5.55-1.86c-2.81,0-4.18,1.56-4.18,3.42a2.61,2.61,0,0,0,.8,1.94A4.65,4.65,0,0,0,317.87,11l3.19.46a8.94,8.94,0,0,1,5.17,2.09,7.57,7.57,0,0,1,2.09,5.74C328.31,24.54,323.95,27.51,318.29,27.51Z"/><path class="cls-1" d="M349.29,24.54a10.51,10.51,0,0,1-14.63,0c-2.73-2.74-2.66-6.12-2.66-10.79S331.93,5.7,334.66,3a10.51,10.51,0,0,1,14.63,0C352,5.7,352,9.08,352,13.75S352,21.81,349.29,24.54ZM345.38,6.15A4.39,4.39,0,0,0,342,4.71a4.48,4.48,0,0,0-3.42,1.44c-1,1.14-1.29,2.39-1.29,7.6s.27,6.46,1.29,7.6A4.47,4.47,0,0,0,342,22.8a4.39,4.39,0,0,0,3.38-1.44c1-1.14,1.33-2.39,1.33-7.6S346.4,7.29,345.38,6.15Z"/><path class="cls-1" d="M357.2,27.28V.23h5.28V22.57h12.27v4.71Z"/><path class="cls-1" d="M387.63,27.51c-5.55,0-10-3.76-10-9.5V.23H383V17.82c0,3.12,1.82,5,4.67,5s4.71-1.86,4.71-5V.23h5.24V18C397.59,23.75,393.18,27.51,387.63,27.51Z"/><path class="cls-1" d="M414.57,4.94V27.28h-5.28V4.94h-7.07V.23h19.41V4.94Z"/><path class="cls-1" d="M426.32,27.28V.23h5.28V27.28Z"/><path class="cls-1" d="M454.09,24.54a10.51,10.51,0,0,1-14.63,0c-2.74-2.74-2.66-6.12-2.66-10.79S436.73,5.7,439.47,3a10.51,10.51,0,0,1,14.63,0c2.74,2.74,2.7,6.12,2.7,10.79S456.83,21.81,454.09,24.54ZM450.18,6.15a4.39,4.39,0,0,0-3.38-1.44,4.48,4.48,0,0,0-3.42,1.44c-1,1.14-1.29,2.39-1.29,7.6s.27,6.46,1.29,7.6a4.48,4.48,0,0,0,3.42,1.44,4.39,4.39,0,0,0,3.38-1.44c1-1.14,1.33-2.39,1.33-7.6S451.21,7.29,450.18,6.15Z"/><path class="cls-1" d="M478.19,27.28l-10.71-16.6v16.6h-5.28V.23h4.71l10.71,16.57V.23h5.28V27.28Z"/><path class="cls-1" d="M10.16,54.51q0,5.93-4.31,5.93a4,4,0,0,1-3.42-1.63V60.3H1.19V43.21H2.44v7a4,4,0,0,1,3.42-1.63Q10.16,48.58,10.16,54.51Zm-1.25,0a7.69,7.69,0,0,0-.55-3.27,2.74,2.74,0,0,0-2.69-1.55A2.74,2.74,0,0,0,3,51.24a7.69,7.69,0,0,0-.55,3.27q0,4.82,3.24,4.82T8.92,54.51Z"/><path class="cls-1" d="M21.32,48.73,15.95,63.44a3.27,3.27,0,0,1-.79,1.34,3.12,3.12,0,0,1-2.18.74H12.4v-1.1h.46a2.19,2.19,0,0,0,1.35-.33A2.81,2.81,0,0,0,15,62.86l.94-2.57L11.68,48.73H13L16.5,58.86,20,48.73Z"/><path class="cls-1" d="M41.41,55.45a6.09,6.09,0,0,1-2,3.64,5.63,5.63,0,0,1-3.85,1.36,5.81,5.81,0,0,1-4.27-1.75A4.88,4.88,0,0,1,30,56.1a28.2,28.2,0,0,1-.21-4.34A28.2,28.2,0,0,1,30,47.41a4.88,4.88,0,0,1,1.37-2.59,5.81,5.81,0,0,1,4.27-1.75,5.66,5.66,0,0,1,3.87,1.34,6.09,6.09,0,0,1,1.94,3.65H40.09a5.07,5.07,0,0,0-1.56-2.8,4.25,4.25,0,0,0-2.93-1,4.41,4.41,0,0,0-3.24,1.32,4.05,4.05,0,0,0-1.13,2.18,26.44,26.44,0,0,0-.19,4,26.44,26.44,0,0,0,.19,4A4.05,4.05,0,0,0,32.36,58a4.41,4.41,0,0,0,3.24,1.32,4.35,4.35,0,0,0,3-1,5,5,0,0,0,1.58-2.8Z"/><path class="cls-1" d="M52.48,49.69l-.88.89a3,3,0,0,0-2.18-.89,2.81,2.81,0,0,0-2.29,1.05,3.72,3.72,0,0,0-.79,2.44V60.3H45.08V48.73h1.25v1.54a3.68,3.68,0,0,1,3.37-1.68A3.76,3.76,0,0,1,52.48,49.69Z"/><path class="cls-1" d="M62.41,54.75h-8q0,4.58,3.76,4.58a4.37,4.37,0,0,0,3.18-1.39l.91.72a5.72,5.72,0,0,1-4.18,1.78q-4.92,0-4.92-5.93a7.27,7.27,0,0,1,1-4.08,4,4,0,0,1,3.6-1.85,4.1,4.1,0,0,1,3.55,1.7,6.57,6.57,0,0,1,1.08,3.92Zm-1.22-1q-.1-2.62-1.58-3.58a3.28,3.28,0,0,0-1.82-.53A3.36,3.36,0,0,0,56,50.2a2.91,2.91,0,0,0-1.18,1.38,6.46,6.46,0,0,0-.41,2.21Z"/><path class="cls-1" d="M74.05,60.3H72.8V59.14a4.75,4.75,0,0,1-3.52,1.3q-4.24,0-4.23-3.31a3,3,0,0,1,1.2-2.57,4.69,4.69,0,0,1,2.82-.77H72.8V52.5q0-2.82-3.25-2.82a3.61,3.61,0,0,0-3.18,1.44l-.88-.77a4.67,4.67,0,0,1,4.08-1.78q4.49,0,4.49,3.79ZM72.8,56.24V54.75H69.23q-2.93,0-2.93,2.33t3,2.26a4,4,0,0,0,2.86-.89A3,3,0,0,0,72.8,56.24Z"/><path class="cls-1" d="M82.26,60.3H81.2a2.58,2.58,0,0,1-2.05-.84,3.2,3.2,0,0,1-.73-2.18V49.64H76.84v-.91h1.58V45h1.25v3.7h2.59v.91H79.67v7.64q0,1.91,1.76,1.91h.83Z"/><path class="cls-1" d="M87,44.72H85.46V43.21H87ZM86.85,60.3H85.61V48.73h1.25Z"/><path class="cls-1" d="M99.35,48.73,95.13,60.3h-1.2L89.7,48.73h1.36l3.47,10.13L98,48.73Z"/><path class="cls-1" d="M110.25,54.75h-8q0,4.58,3.76,4.58a4.37,4.37,0,0,0,3.18-1.39l.91.72a5.72,5.72,0,0,1-4.18,1.78q-4.92,0-4.92-5.93a7.27,7.27,0,0,1,1-4.08,4,4,0,0,1,3.6-1.85,4.1,4.1,0,0,1,3.55,1.7,6.57,6.57,0,0,1,1.08,3.92Zm-1.22-1q-.1-2.62-1.58-3.58a3.28,3.28,0,0,0-1.82-.53,3.36,3.36,0,0,0-1.81.51,2.91,2.91,0,0,0-1.18,1.38,6.46,6.46,0,0,0-.41,2.21Z"/><path class="cls-1" d="M132.06,48.13a4.66,4.66,0,0,1-1.43,3.6A5.28,5.28,0,0,1,126.9,53h-5V60.3h-1.29V43.21h6.26a5.29,5.29,0,0,1,3.73,1.32A4.67,4.67,0,0,1,132.06,48.13Zm-1.3,0a3.58,3.58,0,0,0-1.07-2.81,4.24,4.24,0,0,0-2.94-1h-4.82V51.9h4.82a4.24,4.24,0,0,0,2.94-1A3.58,3.58,0,0,0,130.77,48.13Z"/><path class="cls-1" d="M141.9,49.69l-.88.89a3,3,0,0,0-2.18-.89,2.81,2.81,0,0,0-2.29,1.05,3.72,3.72,0,0,0-.79,2.44V60.3h-1.25V48.73h1.25v1.54a3.68,3.68,0,0,1,3.37-1.68A3.76,3.76,0,0,1,141.9,49.69Z"/><path class="cls-1" d="M152.13,54.51a7.43,7.43,0,0,1-1,4.13,4.6,4.6,0,0,1-7.29,0,7.43,7.43,0,0,1-1-4.13,7.44,7.44,0,0,1,1-4.13,4.6,4.6,0,0,1,7.29,0A7.44,7.44,0,0,1,152.13,54.51Zm-1.25,0q0-4.82-3.41-4.82t-3.41,4.82q0,4.82,3.41,4.82T150.88,54.51Z"/><path class="cls-1" d="M163.84,60.3h-1.25V58.81a4,4,0,0,1-3.42,1.63q-4.31,0-4.31-5.93t4.31-5.93a4,4,0,0,1,3.42,1.63v-7h1.25Zm-1.25-5.78a7.69,7.69,0,0,0-.55-3.27,3.11,3.11,0,0,0-5.38,0,7.69,7.69,0,0,0-.55,3.27q0,4.82,3.24,4.82T162.59,54.51Z"/><path class="cls-1" d="M176.29,60.3H175V58.93a4.25,4.25,0,0,1-3.4,1.51,4.16,4.16,0,0,1-3.12-1.16,4.32,4.32,0,0,1-1.14-3.16V48.73h1.25v7.16q0,3.45,3.17,3.45a3.06,3.06,0,0,0,2.41-.93,3.63,3.63,0,0,0,.83-2.51V48.73h1.25Z"/><path class="cls-1" d="M188.56,58.66A5.68,5.68,0,0,1,186.84,60a4.85,4.85,0,0,1-2.1.41,4.58,4.58,0,0,1-3.87-1.75,6.65,6.65,0,0,1-1.22-4.18,6.65,6.65,0,0,1,1.22-4.18,4.58,4.58,0,0,1,3.87-1.75,4.83,4.83,0,0,1,2.1.41,5.67,5.67,0,0,1,1.71,1.37l-.84.77a3.9,3.9,0,0,0-3-1.44,3.39,3.39,0,0,0-3,1.46,6,6,0,0,0-.84,3.37,5.94,5.94,0,0,0,.84,3.37,3.38,3.38,0,0,0,3,1.46,3.9,3.9,0,0,0,3-1.44Z"/><path class="cls-1" d="M200.51,54.75h-8q0,4.58,3.76,4.58a4.37,4.37,0,0,0,3.18-1.39l.91.72a5.72,5.72,0,0,1-4.18,1.78q-4.92,0-4.92-5.93a7.28,7.28,0,0,1,1-4.08,4,4,0,0,1,3.6-1.85,4.11,4.11,0,0,1,3.55,1.7,6.59,6.59,0,0,1,1.08,3.92Zm-1.22-1q-.1-2.62-1.58-3.58a3.29,3.29,0,0,0-1.82-.53,3.35,3.35,0,0,0-1.8.51,2.89,2.89,0,0,0-1.18,1.38,6.42,6.42,0,0,0-.41,2.21Z"/><path class="cls-1" d="M219.38,60.3h-1.25V58.93a4.25,4.25,0,0,1-3.4,1.51,4.16,4.16,0,0,1-3.12-1.16,4.32,4.32,0,0,1-1.14-3.16V48.73h1.25v7.16q0,3.45,3.17,3.45a3.06,3.06,0,0,0,2.41-.93,3.63,3.63,0,0,0,.83-2.51V48.73h1.25Z"/><path class="cls-1" d="M232.43,60.3h-1.25V53.14q0-3.45-3.17-3.45a3.06,3.06,0,0,0-2.41.93,3.63,3.63,0,0,0-.83,2.51V60.3h-1.25V48.73h1.25V50.1a4.25,4.25,0,0,1,3.4-1.51,4.16,4.16,0,0,1,3.12,1.16,4.32,4.32,0,0,1,1.14,3.16Z"/><path class="cls-1" d="M237.71,44.72H236.2V43.21h1.51Zm-.12,15.58h-1.25V48.73h1.25Z"/><path class="cls-1" d="M246.22,60.3h-1.06a2.58,2.58,0,0,1-2.05-.84,3.2,3.2,0,0,1-.73-2.18V49.64h-1.58v-.91h1.58V45h1.25v3.7h2.59v.91h-2.59v7.64q0,1.91,1.76,1.91h.83Z"/></g></g></svg>