<svg xmlns="http://www.w3.org/2000/svg" viewBox="0 0 297.79 47.78" width="297.79" height="47.78"><defs><style>.cls-1{fill:#231815;}</style></defs><title>ttl_message2</title><g id="レイヤー_2" data-name="レイヤー 2"><g id="レイヤー_1-2" data-name="レイヤー 1"><path class="cls-1" d="M33.39,47.38V20l-9,17.82h-6.2L9.17,20V47.38H0V.4H9L21.32,25.8,33.53.4h9v47Z"/><path class="cls-1" d="M54.85,47.38V.4h31V8.58H64v11H82.56v8.18H64V39.2H85.8v8.18Z"/><path class="cls-1" d="M111,47.78c-7.13,0-12.54-1.52-17.16-6.2l5.94-5.94c3,3,7,4,11.35,4,5.41,0,8.32-2,8.32-5.81a5.23,5.23,0,0,0-1.45-4c-.92-.86-2-1.32-4.16-1.65l-5.67-.79c-4-.59-7-1.85-9.11-3.89-2.24-2.24-3.37-5.28-3.37-9.24C95.7,5.87,101.9,0,112.07,0c6.47,0,11.15,1.58,15.18,5.48l-5.81,5.74C118.47,8.38,114.9,8,111.8,8c-4.88,0-7.26,2.71-7.26,5.94a4.53,4.53,0,0,0,1.39,3.37,8.07,8.07,0,0,0,4.36,1.85l5.54.79c4.29.59,7,1.78,9,3.63,2.51,2.38,3.63,5.81,3.63,10C128.43,42.63,120.84,47.78,111,47.78Z"/><path class="cls-1" d="M152.66,47.78c-7.13,0-12.54-1.52-17.16-6.2l5.94-5.94c3,3,7,4,11.35,4,5.41,0,8.32-2,8.32-5.81a5.23,5.23,0,0,0-1.45-4c-.92-.86-2-1.32-4.16-1.65l-5.68-.79c-4-.59-7-1.85-9.11-3.89-2.24-2.24-3.37-5.28-3.37-9.24,0-8.38,6.2-14.25,16.37-14.25,6.47,0,11.15,1.58,15.18,5.48l-5.81,5.74c-3-2.84-6.53-3.23-9.63-3.23-4.88,0-7.26,2.71-7.26,5.94a4.53,4.53,0,0,0,1.39,3.37,8.07,8.07,0,0,0,4.36,1.85l5.54.79c4.29.59,7,1.78,9,3.63,2.51,2.38,3.63,5.81,3.63,10C170.08,42.63,162.49,47.78,152.66,47.78Z"/><path class="cls-1" d="M207.1,47.38l-2.77-8.32h-16.7l-2.84,8.32h-9.57L192.32.4h7.19l17.16,47Zm-11-33.13-5.94,17.09h11.68Z"/><path class="cls-1" d="M251.46,42.43a17.61,17.61,0,0,1-13.27,5.35,17.22,17.22,0,0,1-12.67-5.15,13.59,13.59,0,0,1-3.83-7.06,64.07,64.07,0,0,1-.79-11.68,64.07,64.07,0,0,1,.79-11.68,13.34,13.34,0,0,1,3.83-7.06A17.22,17.22,0,0,1,238.19,0c10.69,0,16.43,6.86,17.69,15h-9.24c-1.12-4.55-3.89-6.86-8.45-6.86a7.49,7.49,0,0,0-5.87,2.51c-1.72,2.18-2.24,3.89-2.24,13.2s.4,11.09,2.24,13.26a7.25,7.25,0,0,0,5.87,2.44A8.46,8.46,0,0,0,244.72,37a9.23,9.23,0,0,0,2.11-6.27V28.91h-8.65V21.25h17.75v6.86C255.94,35,254.69,39,251.46,42.43Z"/><path class="cls-1" d="M266.83,47.38V.4h31V8.58H276v11h18.54v8.18H276V39.2h21.78v8.18Z"/></g></g></svg>