<svg xmlns="http://www.w3.org/2000/svg" viewBox="0 0 307.03 47.78" width="307.03" height="47.78"><defs><style>.cls-1{fill:#231815;}</style></defs><title>ttl_company2</title><g id="レイヤー_2" data-name="レイヤー 2"><g id="レイヤー_1-2" data-name="レイヤー 1"><path class="cls-1" d="M17.29,47.78A17.22,17.22,0,0,1,4.62,42.63,13.6,13.6,0,0,1,.79,35.57,64.16,64.16,0,0,1,0,23.89,64.16,64.16,0,0,1,.79,12.21,13.35,13.35,0,0,1,4.62,5.15,17.22,17.22,0,0,1,17.29,0c9,0,15.71,5.28,17.29,14.85h-9.3c-1-4-3.5-6.67-7.92-6.67a7.25,7.25,0,0,0-5.87,2.44c-1.91,2-2.31,4.16-2.31,13.26s.4,11.22,2.31,13.27a7.25,7.25,0,0,0,5.87,2.44c4.42,0,6.93-2.64,7.92-6.67h9.3C33,42.5,26.27,47.78,17.29,47.78Z"/><path class="cls-1" d="M73.59,42.63a17,17,0,0,1-12.67,5.15,17.14,17.14,0,0,1-12.74-5.15C43.43,37.88,43.56,32,43.56,23.89s-.13-14,4.62-18.74A17.14,17.14,0,0,1,60.92,0,17,17,0,0,1,73.59,5.15c4.75,4.75,4.69,10.63,4.69,18.74S78.34,37.88,73.59,42.63Zm-6.8-31.94a7.63,7.63,0,0,0-5.87-2.51A7.77,7.77,0,0,0,55,10.69c-1.78,2-2.24,4.16-2.24,13.2S53.2,35.11,55,37.09a7.77,7.77,0,0,0,5.94,2.51,7.63,7.63,0,0,0,5.87-2.51c1.78-2,2.31-4.16,2.31-13.2S68.57,12.67,66.79,10.69Z"/><path class="cls-1" d="M122.36,47.38V20l-9,17.82h-6.2L98.14,20V47.38H89V.4h9L110.28,25.8,122.49.4h9v47Z"/><path class="cls-1" d="M162.36,29.7h-9V47.38h-9.17V.4h18.21c9.7,0,15.51,6.67,15.51,14.65S172.06,29.7,162.36,29.7ZM161.9,8.58h-8.58V21.45h8.58c4.16,0,6.8-2.57,6.8-6.4S166.05,8.58,161.9,8.58Z"/><path class="cls-1" d="M209.68,47.38l-2.77-8.32h-16.7l-2.84,8.32H177.8L194.9.4h7.19l17.16,47Zm-11-33.13-5.94,17.09h11.68Z"/><path class="cls-1" d="M253.17,47.38,234.56,18.54V47.38h-9.17V.4h8.18l18.61,28.77V.4h9.17v47Z"/><path class="cls-1" d="M292.9,28.11V47.38H283.8V28.11L269.67.4h10l8.78,18.94L297.06.4h10Z"/></g></g></svg>