<svg xmlns="http://www.w3.org/2000/svg" viewBox="0 0 269.98 465.13" width="269.98" height="465.13"><defs><style>.cls-1{fill:#231815;}.cls-2{fill:#fff;}</style></defs><title>map_pin</title><g id="レイヤー_2" data-name="レイヤー 2"><g id="レイヤー_1-2" data-name="レイヤー 1"><path class="cls-1" d="M259.43,187.4h0A135,135,0,1,0,5.22,172.29a134,134,0,0,0,5.33,15.11h0v0q1.16,2.75,2.44,5.44L135,465.13,257.14,192.49c.79-1.68,1.56-3.37,2.28-5.09Z"/><path class="cls-2" d="M96.93,97.87V85.21h15.89V97.87Zm.24,72.86V108.5h15.52v62.22Z"/><polygon class="cls-2" points="59.45 150.92 71.13 170.72 88.44 170.72 70.05 139.16 59.45 150.92"/><polygon class="cls-2" points="55.88 144.88 88.69 108.5 69.93 108.5 49.27 130.6 49.27 85.68 33.74 85.68 33.74 170.72 49.27 170.72 49.27 152.21 55.84 144.8 55.88 144.88"/><path class="cls-2" d="M150.08,158.69a12.05,12.05,0,0,1-7.17-4.08c-3.46-3.71-4.18-7.53-4.18-24s.71-20.3,4.18-24a12,12,0,0,1,7.17-4.09v-15a30.75,30.75,0,0,0-19.59,9.17,24.11,24.11,0,0,0-6.93,12.78q-1.43,7.16-1.43,21.13t1.43,21.14a24.56,24.56,0,0,0,6.93,12.78,30.69,30.69,0,0,0,19.59,9.16Z"/><polygon class="cls-2" points="208.61 133.93 208.6 133.94 208.6 85.68 193.08 85.68 193.08 170.72 208.6 170.72 208.6 152.21 208.61 152.21 208.61 133.93"/><polygon class="cls-2" points="225.8 133.58 248.02 108.5 229.27 108.5 215.3 124.26 215.3 145.02 230.47 170.72 247.78 170.72 225.8 133.58"/><path class="cls-2" d="M167.9,119.64h16.53a75.07,75.07,0,0,0-1.15-10.18,24.18,24.18,0,0,0-6.93-12.78,30.76,30.76,0,0,0-19.59-9.17v15a12,12,0,0,1,7.16,4.09C166.45,109.27,167.51,112,167.9,119.64Z"/><path class="cls-2" d="M167.9,141.55c-.4,7.59-1.45,10.36-4,13.06a12.06,12.06,0,0,1-7.16,4.08v15a30.7,30.7,0,0,0,19.59-9.16,24.63,24.63,0,0,0,6.93-12.78,75.07,75.07,0,0,0,1.15-10.18Z"/></g></g></svg>