<svg xmlns="http://www.w3.org/2000/svg" viewBox="0 0 120.42 21.72"><defs><style>.cls-1{fill:#231815;}</style></defs><title>ttl_service</title><g id="レイヤー_2" data-name="レイヤー 2"><g id="レイヤー_1-2" data-name="レイヤー 1"><path class="cls-1" d="M7.8,21.72C4.56,21.72,2.1,21,0,18.9l2.7-2.7A7,7,0,0,0,7.86,18c2.46,0,3.78-.93,3.78-2.64a2.38,2.38,0,0,0-.66-1.8,3.17,3.17,0,0,0-1.89-.75l-2.58-.36a7.25,7.25,0,0,1-4.14-1.77A5.65,5.65,0,0,1,.84,6.48C.84,2.67,3.66,0,8.28,0a9.15,9.15,0,0,1,6.9,2.49L12.54,5.1A5.94,5.94,0,0,0,8.16,3.63c-2.22,0-3.3,1.23-3.3,2.7a2.06,2.06,0,0,0,.63,1.53,3.68,3.68,0,0,0,2,.84L10,9.06a7.06,7.06,0,0,1,4.08,1.65,6,6,0,0,1,1.65,4.53C15.72,19.38,12.27,21.72,7.8,21.72Z"/><path class="cls-1" d="M19.95,21.54V.18H34V3.9h-9.9v5h8.43v3.72H24.12v5.19H34v3.72Z"/><path class="cls-1" d="M50.19,21.54,46,13H43v8.52H38.85V.18h8.37c4.35,0,6.93,3,6.93,6.54a5.75,5.75,0,0,1-3.9,5.61L55,21.54ZM46.95,3.9H43V9.54h3.93a2.78,2.78,0,0,0,3-2.82A2.78,2.78,0,0,0,46.95,3.9Z"/><path class="cls-1" d="M66.84,21.54H63.72L56.67.18H61L65.28,14.1,69.57.18h4.35Z"/><path class="cls-1" d="M77.7,21.54V.18h4.17V21.54Z"/><path class="cls-1" d="M94.14,21.72a7.83,7.83,0,0,1-5.76-2.34,6.18,6.18,0,0,1-1.74-3.21,29.22,29.22,0,0,1-.36-5.31,29.21,29.21,0,0,1,.36-5.31,6.07,6.07,0,0,1,1.74-3.21A7.82,7.82,0,0,1,94.14,0,7.53,7.53,0,0,1,102,6.75H97.77a3.52,3.52,0,0,0-3.6-3A3.3,3.3,0,0,0,91.5,4.83c-.87.93-1,1.89-1,6s.18,5.1,1,6A3.3,3.3,0,0,0,94.17,18a3.52,3.52,0,0,0,3.6-3H102A7.54,7.54,0,0,1,94.14,21.72Z"/><path class="cls-1" d="M106.35,21.54V.18h14.07V3.9h-9.9v5h8.43v3.72h-8.43v5.19h9.9v3.72Z"/></g></g></svg>