<svg xmlns="http://www.w3.org/2000/svg" viewBox="0 0 121.65 21.72"><defs><style>.cls-1{fill:#231815;}</style></defs><title>ttl_profile</title><g id="レイヤー_2" data-name="レイヤー 2"><g id="レイヤー_1-2" data-name="レイヤー 1"><path class="cls-1" d="M8.28,13.5H4.17v8H0V.18H8.28c4.41,0,7,3,7,6.66S12.69,13.5,8.28,13.5ZM8.07,3.9H4.17V9.75h3.9a2.82,2.82,0,0,0,3.09-2.91A2.85,2.85,0,0,0,8.07,3.9Z"/><path class="cls-1" d="M30.78,21.54,26.61,13h-3v8.52H19.44V.18h8.37c4.35,0,6.93,3,6.93,6.54a5.75,5.75,0,0,1-3.9,5.61l4.77,9.21ZM27.54,3.9H23.61V9.54h3.93a2.78,2.78,0,0,0,3-2.82A2.78,2.78,0,0,0,27.54,3.9Z"/><path class="cls-1" d="M52.74,19.38a8.3,8.3,0,0,1-11.55,0c-2.16-2.16-2.1-4.83-2.1-8.52S39,4.5,41.19,2.34a8.3,8.3,0,0,1,11.55,0c2.16,2.16,2.13,4.83,2.13,8.52S54.9,17.22,52.74,19.38ZM49.65,4.86A3.47,3.47,0,0,0,47,3.72a3.53,3.53,0,0,0-2.7,1.14c-.81.9-1,1.89-1,6s.21,5.1,1,6A3.53,3.53,0,0,0,47,18a3.47,3.47,0,0,0,2.67-1.14c.81-.9,1.05-1.89,1.05-6S50.46,5.76,49.65,4.86Z"/><path class="cls-1" d="M64,3.9V9.15h8.43v3.72H64v8.67H59.88V.18H73.95V3.9Z"/><path class="cls-1" d="M78.93,21.54V.18H83.1V21.54Z"/><path class="cls-1" d="M89.13,21.54V.18H93.3V17.82H103v3.72Z"/><path class="cls-1" d="M107.58,21.54V.18h14.07V3.9h-9.9v5h8.43v3.72h-8.43v5.19h9.9v3.72Z"/></g></g></svg>