<svg xmlns="http://www.w3.org/2000/svg" viewBox="0 0 170.85 21.72"><defs><style>.cls-1{fill:#231815;}</style></defs><title>ttl_statement</title><g id="レイヤー_2" data-name="レイヤー 2"><g id="レイヤー_1-2" data-name="レイヤー 1"><path class="cls-1" d="M7.8,21.72C4.56,21.72,2.1,21,0,18.9l2.7-2.7A7,7,0,0,0,7.86,18c2.46,0,3.78-.93,3.78-2.64a2.38,2.38,0,0,0-.66-1.8,3.18,3.18,0,0,0-1.89-.75l-2.58-.36a7.24,7.24,0,0,1-4.14-1.77A5.65,5.65,0,0,1,.84,6.48C.84,2.67,3.66,0,8.28,0a9.15,9.15,0,0,1,6.9,2.49L12.54,5.1A5.94,5.94,0,0,0,8.16,3.63c-2.22,0-3.3,1.23-3.3,2.7a2.06,2.06,0,0,0,.63,1.53,3.67,3.67,0,0,0,2,.84L10,9.06a7.07,7.07,0,0,1,4.08,1.65,6,6,0,0,1,1.65,4.53C15.72,19.38,12.27,21.72,7.8,21.72Z"/><path class="cls-1" d="M27.36,3.9V21.54H23.19V3.9H17.61V.18H32.94V3.9Z"/><path class="cls-1" d="M47.28,21.54,46,17.76H38.43l-1.29,3.78H32.79L40.56.18h3.27l7.8,21.36Zm-5-15.06-2.7,7.77h5.31Z"/><path class="cls-1" d="M60.78,3.9V21.54H56.61V3.9H51V.18H66.36V3.9Z"/><path class="cls-1" d="M70.8,21.54V.18H84.87V3.9H75v5H83.4v3.72H75v5.19h9.9v3.72Z"/><path class="cls-1" d="M105,21.54V9.09l-4.08,8.1H98.13L94,9.09V21.54H89.85V.18H94l5.58,11.55L105.09.18h4.11V21.54Z"/><path class="cls-1" d="M115.08,21.54V.18h14.07V3.9h-9.9v5h8.43v3.72h-8.43v5.19h9.9v3.72Z"/><path class="cls-1" d="M147.21,21.54,138.75,8.43V21.54h-4.17V.18h3.72l8.46,13.08V.18h4.17V21.54Z"/><path class="cls-1" d="M165.27,3.9V21.54H161.1V3.9h-5.58V.18h15.33V3.9Z"/></g></g></svg>